<mxfile host="app.diagrams.net" modified="2024-05-12T21:25:53.270Z" agent="Mozilla/5.0 (Windows NT 10.0; Win64; x64) AppleWebKit/537.36 (KHTML, like Gecko) Chrome/124.0.0.0 Safari/537.36 Edg/124.0.0.0" version="24.4.0" etag="mdOJs2e4GsCdlrbqO5ej" type="github">
  <diagram name="PÃ¡gina-1" id="LR_qldeJP0MJAAHgZE4h">
    <mxGraphModel>
      <root>
        <mxCell id="0" />
        <mxCell id="1" parent="0" />
      </root>
    </mxGraphModel>
  </diagram>
</mxfile>
